<?xml version="1.0" encoding="iso-8859-1"?>
<!-- Generator: Adobe Illustrator 17.1.0, SVG Export Plug-In . SVG Version: 6.00 Build 0)  -->
<!DOCTYPE svg PUBLIC "-//W3C//DTD SVG 1.1//EN" "http://www.w3.org/Graphics/SVG/1.1/DTD/svg11.dtd">
<svg version="1.1" id="Capa_1" xmlns="http://www.w3.org/2000/svg" xmlns:xlink="http://www.w3.org/1999/xlink" x="0px" y="0px"
	 viewBox="0 0 470.002 470.002" style="enable-background:new 0 0 470.002 470.002;" xml:space="preserve">
<g>
	<path style="fill:#ED1B24;" d="M249.171,214.695c-3.729-2.403-5.429-6.975-4.176-11.229c1.252-4.255,5.157-7.177,9.593-7.177
		c3.581,0,6.495-2.914,6.495-6.495v-35.589c0-3.217-2.354-5.888-5.427-6.399c-0.658,0.136-1.34,0.209-2.038,0.209
		c-0.833,0-1.637-0.113-2.41-0.305h-35.793c-3.581,0-6.495,2.914-6.495,6.495v35.589c0,3.581,2.914,6.495,6.495,6.495
		c4.436,0,8.341,2.922,9.593,7.177c1.253,4.255-0.447,8.826-4.176,11.229c-0.655,0.438-17.608,12.04-17.608,36.444
		c0,37.002,18.196,73.185,31.778,73.185s31.778-36.183,31.778-73.185C266.779,226.328,249.347,214.808,249.171,214.695z"/>
	<path d="M417.092,286.115c-0.848-35.912-8.08-61.332-8.388-62.397c-0.868-3.006-3.094-5.432-6.014-6.557L299.454,177.4l78.132,7
		c0.302,0.027,0.602,0.04,0.899,0.04c4.445,0,8.408-2.958,9.624-7.309c0.286-1.023,7.008-25.438,7.593-58.8
		c0.782-44.611-9.977-84.063-31.114-114.087c-3.18-4.516-9.418-5.601-13.934-2.42c-4.516,3.179-5.6,9.417-2.42,13.934
		c37.406,53.133,27.265,124.255,22.452,147.943l-73.967-6.627l42.478-9.292c4.015-0.878,7.083-4.122,7.736-8.18
		c0.56-3.476,13.112-85.707-37.853-136.673c-3.906-3.904-10.236-3.904-14.143,0c-3.905,3.905-3.905,10.237,0,14.143
		c36.014,36.014,34.636,93.322,32.983,112.704L277.44,140.82c-3.106-5.283-7.987-9.402-13.823-11.524v-16.719
		c0-5.522-4.478-10-10-10s-10,4.478-10,10v15.133h-14.08v-15.133c0-5.522-4.478-10-10-10s-10,4.478-10,10v15.798
		c-7.219,1.642-13.324,6.236-16.975,12.445l-50.497-11.046c-1.687-19.364-3.138-76.565,32.998-112.701
		c3.905-3.905,3.905-10.237,0-14.143c-3.906-3.904-10.236-3.904-14.143,0c-50.965,50.966-38.412,133.197-37.853,136.673
		c0.653,4.058,3.722,7.302,7.736,8.18l42.478,9.292l-73.98,6.628C94.46,140.041,84.26,69.036,121.768,15.758
		c3.18-4.517,2.096-10.755-2.42-13.934c-4.517-3.18-10.754-2.095-13.934,2.42C84.277,34.269,73.518,73.72,74.3,118.331
		c0.585,33.362,7.307,57.776,7.593,58.8c1.216,4.352,5.179,7.309,9.624,7.309c0.298,0,0.598-0.013,0.899-0.04l78.132-7
		L67.312,217.161c-2.92,1.125-5.146,3.551-6.014,6.557c-0.308,1.065-7.54,26.485-8.388,62.397
		c-1.129,47.785,9.788,91.56,31.57,126.591c1.895,3.047,5.16,4.721,8.502,4.721c1.803,0,3.627-0.487,5.271-1.509
		c4.69-2.916,6.128-9.082,3.212-13.772c-24.802-39.887-29.228-84.546-28.573-114.986c0.533-24.844,4.439-44.584,6.443-53.196
		l100.244-38.608l-43.748,45.887c-1.453,1.523-2.388,3.466-2.671,5.551c-0.187,1.368-4.527,34.008-1.362,77.272
		c2.947,40.289,13.304,97.607,45.905,141.868c1.961,2.661,4.99,4.07,8.06,4.07c2.06,0,4.138-0.635,5.923-1.949
		c4.446-3.275,5.396-9.535,2.121-13.982c-52.154-70.807-43.29-181.502-41.188-201.454l43.062-45.167
		c0.64,0.714,1.315,1.396,2.027,2.037c-7.042,8.731-14.484,22.491-14.484,41.652c0,38.911,19.698,93.185,51.778,93.185
		s51.778-54.273,51.778-93.185c0-19.161-7.442-32.921-14.484-41.652c0.713-0.642,1.388-1.323,2.027-2.038l43.064,45.171
		c2.118,19.957,11.048,130.53-41.191,201.451c-3.275,4.447-2.325,10.707,2.121,13.982c1.786,1.315,3.863,1.949,5.923,1.949
		c3.069-0.001,6.1-1.409,8.06-4.07c32.602-44.261,42.958-101.579,45.905-141.868c3.165-43.265-1.176-75.904-1.362-77.272
		c-0.283-2.085-1.218-4.027-2.671-5.551l-43.748-45.887l100.242,38.607c4.666,20.124,19.634,101.02-22.128,168.184
		c-2.916,4.69-1.479,10.856,3.212,13.772c1.644,1.022,3.468,1.51,5.271,1.509c3.342,0,6.607-1.674,8.502-4.721
		C407.304,377.674,418.221,333.9,417.092,286.115z M235.001,324.324c-13.582,0-31.778-36.183-31.778-73.185
		c0-24.404,16.953-36.006,17.608-36.444c3.729-2.403,5.429-6.975,4.176-11.229c-1.252-4.255-5.157-7.177-9.593-7.177
		c-3.581,0-6.495-2.914-6.495-6.495v-35.589c0-3.581,2.914-6.495,6.495-6.495h35.793c0.773,0.191,1.578,0.305,2.41,0.305
		c0.699,0,1.38-0.073,2.038-0.209c3.074,0.512,5.427,3.183,5.427,6.399v35.589c0,3.581-2.914,6.495-6.495,6.495
		c-4.436,0-8.341,2.922-9.593,7.177c-1.253,4.255,0.447,8.826,4.176,11.229c0.176,0.113,17.608,11.634,17.608,36.444
		C266.779,288.141,248.583,324.324,235.001,324.324z"/>
</g>
<g>
</g>
<g>
</g>
<g>
</g>
<g>
</g>
<g>
</g>
<g>
</g>
<g>
</g>
<g>
</g>
<g>
</g>
<g>
</g>
<g>
</g>
<g>
</g>
<g>
</g>
<g>
</g>
<g>
</g>
</svg>
